HIERARCHY
ROOT SpineBase
{
  OFFSET 0.000000 0.000000 0.000000
  CHANNELS 6 Xposition Yposition Zposition Zrotation Xrotation Yrotation
  JOINT SpineMid
  {
    OFFSET 0.000000 32.038090 0.000000
    CHANNELS 3 Zrotation Xrotation Yrotation
    JOINT SpineShoulder
    {
      OFFSET 0.200666 23.645093 -0.688784
      CHANNELS 3 Zrotation Xrotation Yrotation
      JOINT Neck
      {
        OFFSET 0.216090 7.767218 -0.501687
        CHANNELS 3 Zrotation Xrotation Yrotation
        JOINT Head
        {
          OFFSET -7.566067 12.537293 1.529681
          CHANNELS 3 Zrotation Xrotation Yrotation
          End Site
          {
            OFFSET 0 0 0
          }
        }
      }
      JOINT ShoulderLeft
      {
        OFFSET -9.615229 -4.017162 13.644622
        CHANNELS 3 Zrotation Xrotation Yrotation
        JOINT ElbowLeft
        {
          OFFSET -6.862160 -27.145086 9.293384
          CHANNELS 3 Zrotation Xrotation Yrotation
          JOINT WristLeft
          {
            OFFSET 2.838359 -25.431795 -7.332969
            CHANNELS 3 Zrotation Xrotation Yrotation
            JOINT HandLeft
            {
              OFFSET -0.053530 -6.263186 -1.436319
              CHANNELS 3 Zrotation Xrotation Yrotation
              JOINT HandTipLeft
              {
                OFFSET 1.565002 -6.388040 -1.869798
                CHANNELS 3 Zrotation Xrotation Yrotation
                End Site
                {
                  OFFSET 0 0 0
                }
              }
              JOINT ThumbLeft
              {
                OFFSET 2.435469 1.252232 -3.761098
                CHANNELS 3 Zrotation Xrotation Yrotation
                End Site
                {
                  OFFSET 0 0 0
                }
              }
            }
          }
        }
      }
      JOINT ShoulderRight
      {
        OFFSET 8.201967 -3.474497 -12.701135
        CHANNELS 3 Zrotation Xrotation Yrotation
        JOINT ElbowRight
        {
          OFFSET 3.721853 -25.073964 -7.375659
          CHANNELS 3 Zrotation Xrotation Yrotation
          JOINT WristRight
          {
            OFFSET -5.510563 -27.062185 -2.439710
            CHANNELS 3 Zrotation Xrotation Yrotation
            JOINT HandRight
            {
              OFFSET -1.318348 -6.613554 -0.074081
              CHANNELS 3 Zrotation Xrotation Yrotation
              JOINT HandTipRight
              {
                OFFSET -1.349939 -6.852457 0.715259
                CHANNELS 3 Zrotation Xrotation Yrotation
                End Site
                {
                  OFFSET 0 0 0
                }
              }
              JOINT ThumbRight
              {
                OFFSET 2.715688 -0.555411 -1.270259
                CHANNELS 3 Zrotation Xrotation Yrotation
                End Site
                {
                  OFFSET 0 0 0
                }
              }
            }
          }
        }
      }
    }
  }
  JOINT HipLeft
  {
    OFFSET -4.566260 -0.119173 1.800101
    CHANNELS 3 Zrotation Xrotation Yrotation
    JOINT KneeLeft
    {
      OFFSET 0.709303 -31.320289 7.377250
      CHANNELS 3 Zrotation Xrotation Yrotation
      JOINT AnkleLeft
      {
        OFFSET 13.372076 -38.871795 7.363267
        CHANNELS 3 Zrotation Xrotation Yrotation
        JOINT FootLeft
        {
          OFFSET -7.063853 -5.156468 -8.263646
          CHANNELS 3 Zrotation Xrotation Yrotation
          End Site
          {
            OFFSET 0 0 0
          }
        }
      }
    }
  }
  JOINT HipRight
  {
    OFFSET 4.160641 1.645173 -8.760600
    CHANNELS 3 Zrotation Xrotation Yrotation
    JOINT KneeRight
    {
      OFFSET 6.071774 -32.053825 -2.973753
      CHANNELS 3 Zrotation Xrotation Yrotation
      JOINT AnkleRight
      {
        OFFSET 8.023321 -38.672671 4.057681
        CHANNELS 3 Zrotation Xrotation Yrotation
        JOINT FootRight
        {
          OFFSET -8.814456 -3.954103 -9.369033
          CHANNELS 3 Zrotation Xrotation Yrotation
          End Site
          {
            OFFSET 0 0 0
          }
        }
      }
    }
  }
}
MOTION
Frames: 13
Frame Time: 0.033333
27.750931 79.536078 341.372230 -3.747471 -11.748943 26.198399 0.070091 -0.925733 -26.645503 1.161392 -0.840062 0.084222 -20.616657 -4.870956 -8.255855 0.000000 0.000000 0.000000 9.675812 7.960557 2.025710 -27.721302 -15.454515 -2.091112 31.119292 12.652588 -12.547559 -33.691589 -10.508906 5.632363 0.000000 0.000000 0.000000 0.000000 0.000000 0.000000 -0.670120 8.714253 0.158666 12.043955 2.391968 -1.197599 -16.934587 -15.462572 3.248020 16.893176 32.990366 -11.124291 0.000000 0.000000 0.000000 0.000000 0.000000 0.000000 6.429785 8.102606 -27.342660 -3.454005 -8.004503 -4.173431 11.015470 7.103358 -3.615418 0.000000 0.000000 0.000000 2.028839 19.672890 -23.303405 11.832044 -10.960860 -2.018770 2.622933 5.275747 -13.875772 0.000000 0.000000 0.000000
27.805258 80.089706 341.203544 -4.151448 -12.656642 25.402539 0.078631 -0.935379 -25.935051 1.139904 -0.807557 0.076939 -22.624390 -4.711032 -8.150876 0.000000 0.000000 0.000000 9.680687 9.635092 1.527870 -27.801659 -16.193843 -1.978587 31.464137 11.281947 -12.595019 -34.284400 -10.004124 6.157528 0.000000 0.000000 0.000000 0.000000 0.000000 0.000000 -0.173685 9.069353 -0.000373 12.140088 2.708782 -1.152540 -15.747098 -23.765154 4.692663 24.410371 43.973899 -19.540982 0.000000 0.000000 0.000000 0.000000 0.000000 0.000000 7.816520 7.967957 -26.602150 -6.611471 -8.779817 -5.381441 17.654859 3.192503 -3.644376 0.000000 0.000000 0.000000 3.521854 20.959168 -22.678081 10.467478 -12.123239 -2.326059 3.297804 5.331943 -13.339072 0.000000 0.000000 0.000000
27.713454 80.564064 341.137565 -4.629917 -13.437584 24.761503 -0.081090 -1.046572 -25.390048 1.085996 -0.852860 0.064914 -23.779241 -4.236262 -7.887170 0.000000 0.000000 0.000000 9.490465 11.247666 1.016955 -27.143455 -16.604057 -1.707877 30.256101 11.293305 -11.903964 -32.951108 -10.191206 5.594127 0.000000 0.000000 0.000000 0.000000 0.000000 0.000000 0.555431 9.443600 -0.210350 12.018631 3.387666 -1.148534 -14.300515 -31.391181 6.234425 40.699913 53.871637 -35.845159 0.000000 0.000000 0.000000 0.000000 0.000000 0.000000 8.860239 7.881352 -26.073410 -9.116418 -9.403095 -6.391215 27.456371 -5.054612 -2.414778 0.000000 0.000000 0.000000 5.833591 21.627332 -22.609164 8.330170 -12.904896 -2.583499 3.814788 5.214323 -12.564911 0.000000 0.000000 0.000000
27.652332 80.897768 340.922224 -4.937996 -13.818091 24.212324 -0.219011 -1.102611 -24.898151 1.038589 -0.896042 0.054992 -24.758743 -4.248613 -7.906883 0.000000 0.000000 0.000000 9.058671 12.648072 0.540728 -26.719781 -17.877773 -1.612369 27.215709 12.100910 -10.383163 -29.392641 -4.885663 6.855317 0.000000 0.000000 0.000000 0.000000 0.000000 0.000000 1.187764 9.926411 -0.349540 11.732624 3.476429 -1.077946 -11.039808 -35.975495 7.983270 55.499570 58.077804 -51.997512 0.000000 0.000000 0.000000 0.000000 0.000000 0.000000 9.168769 7.552186 -25.592481 -10.992113 -9.791988 -7.193795 30.682353 -5.435077 -3.103483 0.000000 0.000000 0.000000 8.115080 21.823482 -22.727646 5.988838 -13.699121 -2.851297 4.169792 5.274259 -11.817548 0.000000 0.000000 0.000000
27.818655 81.197911 340.350927 -5.027140 -14.019490 24.107051 -0.308046 -1.122770 -24.810618 1.056795 -0.863697 0.049814 -26.632846 -4.973889 -8.362056 0.000000 0.000000 0.000000 8.202288 13.333084 0.275371 -26.153904 -19.049783 -1.523193 25.209761 12.661401 -9.389047 -28.071072 -4.190612 6.788360 0.000000 0.000000 0.000000 0.000000 0.000000 0.000000 1.391824 8.833082 -0.626375 11.584126 4.816622 -1.082479 -6.528658 -37.041083 9.624881 61.494756 59.640285 -60.646763 0.000000 0.000000 0.000000 0.000000 0.000000 0.000000 8.460365 6.982079 -25.538315 -11.935603 -9.745404 -7.681764 29.514535 -0.921242 -4.578411 0.000000 0.000000 0.000000 9.305144 20.102634 -23.385018 4.117314 -12.526988 -2.746197 4.126551 5.352689 -10.633254 0.000000 0.000000 0.000000
28.064744 81.314380 339.704964 -4.993097 -14.035976 25.086467 -0.270257 -1.012828 -25.780974 1.136068 -0.738762 0.046130 -28.601027 -6.197104 -9.200703 0.000000 0.000000 0.000000 6.832107 13.020216 0.240969 -25.247436 -19.958388 -1.368693 23.575949 15.440216 -8.530706 -28.381760 -4.742251 6.702526 0.000000 0.000000 0.000000 0.000000 0.000000 0.000000 1.686745 7.576690 -1.002033 10.968368 5.885075 -0.920435 -2.178067 -34.044812 10.089423 58.899391 58.922800 -59.804413 0.000000 0.000000 0.000000 0.000000 0.000000 0.000000 7.292616 6.367384 -26.566978 -12.030120 -9.525992 -7.877994 24.593338 7.939607 -6.377921 0.000000 0.000000 0.000000 10.212332 17.814834 -25.028859 2.706422 -11.074927 -2.496273 3.865898 5.571312 -9.517730 0.000000 0.000000 0.000000
28.314161 81.308611 339.104133 -4.963828 -14.075156 26.289044 -0.308584 -1.024182 -26.980737 1.168314 -0.747712 0.045609 -30.854826 -7.274975 -10.041844 0.000000 0.000000 0.000000 5.540367 12.883974 0.193497 -24.298422 -20.799102 -1.223010 22.402709 16.114174 -7.912762 -28.153388 -3.747954 7.207130 0.000000 0.000000 0.000000 0.000000 0.000000 0.000000 1.427608 7.217895 -0.971755 11.105003 6.322579 -0.993709 2.324937 -33.738586 11.316672 53.625544 58.747225 -57.270038 0.000000 0.000000 0.000000 0.000000 0.000000 0.000000 5.959176 5.952878 -27.856397 -11.692843 -9.547618 -8.077522 21.191054 13.793008 -5.420801 0.000000 0.000000 0.000000 10.635929 15.241313 -26.798059 1.558553 -9.220969 -2.145712 3.835385 5.797540 -8.991790 0.000000 0.000000 0.000000
28.579049 81.245249 338.532574 -4.872576 -14.043460 27.219261 -0.230752 -0.993697 -27.898838 1.217337 -0.710820 0.048504 -33.247418 -8.666205 -11.246068 0.000000 0.000000 0.000000 4.295524 12.467190 0.209135 -23.338780 -21.450107 -1.133369 21.290540 16.105537 -7.344502 -25.267837 -4.893641 5.558436 0.000000 0.000000 0.000000 0.000000 0.000000 0.000000 1.121237 7.750092 -0.788647 11.175978 5.640556 -1.006856 6.098818 -33.113664 12.216933 41.603112 57.436200 -47.722669 0.000000 0.000000 0.000000 0.000000 0.000000 0.000000 4.404454 5.593889 -28.872700 -11.021600 -9.464007 -8.167700 18.384879 18.218859 -4.122602 0.000000 0.000000 0.000000 10.827425 13.514312 -28.066012 0.605154 -8.148831 -1.951016 4.086178 6.095244 -9.009222 0.000000 0.000000 0.000000
28.837497 81.080395 338.053056 -4.761836 -14.079497 28.104392 -0.094333 -0.947037 -28.773259 1.292170 -0.624013 0.052415 -35.440705 -9.798633 -12.266883 0.000000 0.000000 0.000000 2.993016 11.783020 0.284638 -22.435288 -22.698518 -1.317153 21.649777 19.970892 -7.496729 -20.268117 -9.553201 1.643599 0.000000 0.000000 0.000000 0.000000 0.000000 0.000000 0.561240 7.425528 -0.661833 11.452336 5.795655 -1.110212 8.923475 -32.241594 12.726208 26.813559 53.889118 -34.895252 0.000000 0.000000 0.000000 0.000000 0.000000 0.000000 2.937435 5.455290 -29.847891 -10.065045 -9.437849 -8.200793 10.053516 28.323415 -1.897648 0.000000 0.000000 0.000000 10.574070 12.106295 -29.159614 0.469197 -7.164043 -1.713730 3.911051 6.398394 -8.809964 0.000000 0.000000 0.000000
29.051297 80.981443 337.652029 -4.681010 -14.125130 30.898427 -0.168620 -1.039880 -31.562480 1.318606 -0.570554 0.056151 -37.269529 -10.521583 -12.993916 0.000000 0.000000 0.000000 2.086384 10.648786 0.514586 -22.654276 -22.082150 -0.911806 24.101855 14.108620 -9.099389 -20.344344 -8.498904 1.777711 0.000000 0.000000 0.000000 0.000000 0.000000 0.000000 0.273832 7.650097 -0.552259 11.614422 5.647315 -1.162883 10.732883 -32.213368 13.255214 17.924258 52.595846 -28.231393 0.000000 0.000000 0.000000 0.000000 0.000000 0.000000 2.070721 5.554385 -32.723313 -9.309376 -9.598286 -8.271265 10.182174 27.388243 0.274970 0.000000 0.000000 0.000000 10.076514 10.090069 -32.140137 0.713942 -5.516119 -1.372491 3.783712 6.579134 -8.872385 0.000000 0.000000 0.000000
29.049533 80.791539 337.641378 -4.851289 -14.557666 30.415231 0.000251 -1.024954 -31.130944 1.310866 -0.526364 0.057957 -38.397307 -10.742479 -13.258311 0.000000 0.000000 0.000000 1.250363 9.971549 0.639603 -22.452693 -22.227529 -0.743820 28.718733 12.529748 -11.834722 -18.166817 -3.794476 2.690126 0.000000 0.000000 0.000000 0.000000 0.000000 0.000000 0.325925 8.337547 -0.494075 11.583687 5.226447 -1.136955 11.193051 -33.226622 13.816619 12.516994 51.089705 -23.699720 0.000000 0.000000 0.000000 0.000000 0.000000 0.000000 2.144403 5.838523 -32.308746 -9.244253 -9.804682 -8.404648 11.634846 25.379904 1.308823 0.000000 0.000000 0.000000 10.222328 10.135087 -31.798590 1.123754 -5.243883 -1.252504 3.454325 6.576459 -9.057793 0.000000 0.000000 0.000000
28.837138 80.540951 338.017243 -5.317199 -15.420350 26.919333 0.344676 -0.886037 -27.756301 1.307921 -0.458615 0.052905 -38.802473 -10.367503 -12.905684 0.000000 0.000000 0.000000 0.686543 9.151406 0.831701 -22.117512 -21.117746 -0.220682 29.103983 7.681125 -12.150468 -15.319546 5.392951 3.958585 0.000000 0.000000 0.000000 0.000000 0.000000 0.000000 0.648565 9.095881 -0.515272 11.509884 4.992933 -1.099650 11.863480 -32.168581 13.560302 8.625654 48.991323 -20.425811 0.000000 0.000000 0.000000 0.000000 0.000000 0.000000 2.782153 5.974660 -28.921091 -9.904249 -10.149372 -8.786961 13.397606 25.193658 0.022798 0.000000 0.000000 0.000000 11.480062 12.219382 -28.511129 0.836814 -6.646584 -1.437422 3.391381 6.535596 -9.175806 0.000000 0.000000 0.000000
28.641231 80.320510 338.267634 -5.712932 -16.060346 19.726334 0.634560 -0.713951 -20.666974 1.255153 -0.503052 0.050855 -38.950130 -10.010623 -12.590775 0.000000 0.000000 0.000000 0.384038 8.654689 0.958562 -21.900597 -20.774821 -0.009728 32.354512 7.040683 -13.997280 -14.721708 9.428863 4.354508 0.000000 0.000000 0.000000 0.000000 0.000000 0.000000 1.073739 9.836961 -0.571409 11.362396 4.739266 -1.037308 11.502972 -32.209804 13.458090 11.000767 52.086396 -23.249428 0.000000 0.000000 0.000000 0.000000 0.000000 0.000000 2.086688 5.582365 -21.862326 -9.917036 -9.303540 -8.680468 15.290059 23.362556 0.107770 0.000000 0.000000 0.000000 11.681178 15.717064 -21.402586 0.565216 -8.701457 -1.738736 3.274745 6.488512 -9.326137 0.000000 0.000000 0.000000
